<svg width="14" height="8" viewBox="0 0 14 8" fill="none" xmlns="http://www.w3.org/2000/svg">
<path d="M1.58333 0H0.749995C0.519876 0 0.333328 0.179086 0.333328 0.4V1.2C0.333328 1.42091 0.519876 1.6 0.749995 1.6H1.58333C1.81345 1.6 1.99999 1.42091 1.99999 1.2V0.4C1.99999 0.179086 1.81345 0 1.58333 0Z" fill="#1C64F2"/>
<path d="M1.58333 3.2H0.749995C0.519876 3.2 0.333328 3.37909 0.333328 3.6V4.4C0.333328 4.62091 0.519876 4.8 0.749995 4.8H1.58333C1.81345 4.8 1.99999 4.62091 1.99999 4.4V3.6C1.99999 3.37909 1.81345 3.2 1.58333 3.2Z" fill="#1C64F2"/>
<path d="M1.58333 6.4H0.749995C0.519876 6.4 0.333328 6.57909 0.333328 6.8V7.6C0.333328 7.82091 0.519876 8 0.749995 8H1.58333C1.81345 8 1.99999 7.82091 1.99999 7.6V6.8C1.99999 6.57909 1.81345 6.4 1.58333 6.4Z" fill="#1C64F2"/>
<path d="M12.8333 1.6H4.49999C4.27898 1.6 4.06702 1.51571 3.91074 1.36569C3.75446 1.21566 3.66666 1.01217 3.66666 0.8C3.66666 0.587827 3.75446 0.384344 3.91074 0.234315C4.06702 0.0842856 4.27898 0 4.49999 0H12.8333C13.0543 0 13.2663 0.0842856 13.4226 0.234315C13.5789 0.384344 13.6667 0.587827 13.6667 0.8C13.6667 1.01217 13.5789 1.21566 13.4226 1.36569C13.2663 1.51571 13.0543 1.6 12.8333 1.6Z" fill="#1C64F2"/>
<path d="M12.8333 4.8H4.49999C4.27898 4.8 4.06702 4.71571 3.91074 4.56569C3.75446 4.41566 3.66666 4.21217 3.66666 4C3.66666 3.78783 3.75446 3.58434 3.91074 3.43431C4.06702 3.28429 4.27898 3.2 4.49999 3.2H12.8333C13.0543 3.2 13.2663 3.28429 13.4226 3.43431C13.5789 3.58434 13.6667 3.78783 13.6667 4C13.6667 4.21217 13.5789 4.41566 13.4226 4.56569C13.2663 4.71571 13.0543 4.8 12.8333 4.8Z" fill="#1C64F2"/>
<path d="M12.8333 8H4.49999C4.27898 8 4.06702 7.91572 3.91074 7.76569C3.75446 7.61566 3.66666 7.41217 3.66666 7.2C3.66666 6.98783 3.75446 6.78434 3.91074 6.63432C4.06702 6.48429 4.27898 6.4 4.49999 6.4H12.8333C13.0543 6.4 13.2663 6.48429 13.4226 6.63432C13.5789 6.78434 13.6667 6.98783 13.6667 7.2C13.6667 7.41217 13.5789 7.61566 13.4226 7.76569C13.2663 7.91572 13.0543 8 12.8333 8Z" fill="#1C64F2"/>
</svg>
